<svg width="350" height="38" viewBox="0 0 350 38" fill="none" xmlns="http://www.w3.org/2000/svg">
<path d="M21.492 21.896C22.932 22.352 24.06 23.12 24.876 24.2C25.692 25.256 26.1 26.564 26.1 28.124C26.1 30.332 25.236 32.036 23.508 33.236C21.804 34.412 19.308 35 16.02 35H2.988V9.8H15.3C18.372 9.8 20.724 10.388 22.356 11.564C24.012 12.74 24.84 14.336 24.84 16.352C24.84 17.576 24.54 18.668 23.94 19.628C23.364 20.588 22.548 21.344 21.492 21.896ZM8.784 14.192V20.132H14.58C16.02 20.132 17.112 19.88 17.856 19.376C18.6 18.872 18.972 18.128 18.972 17.144C18.972 16.16 18.6 15.428 17.856 14.948C17.112 14.444 16.02 14.192 14.58 14.192H8.784ZM15.588 30.608C17.124 30.608 18.276 30.356 19.044 29.852C19.836 29.348 20.232 28.568 20.232 27.512C20.232 25.424 18.684 24.38 15.588 24.38H8.784V30.608H15.588ZM49.0913 25.388C49.0913 25.46 49.0553 25.964 48.9833 26.9H34.3313C34.5953 28.1 35.2193 29.048 36.2033 29.744C37.1873 30.44 38.4113 30.788 39.8753 30.788C40.8833 30.788 41.7713 30.644 42.5393 30.356C43.3313 30.044 44.0633 29.564 44.7353 28.916L47.7233 32.156C45.8993 34.244 43.2353 35.288 39.7313 35.288C37.5473 35.288 35.6153 34.868 33.9353 34.028C32.2553 33.164 30.9593 31.976 30.0473 30.464C29.1353 28.952 28.6793 27.236 28.6793 25.316C28.6793 23.42 29.1233 21.716 30.0113 20.204C30.9233 18.668 32.1593 17.48 33.7193 16.64C35.3033 15.776 37.0673 15.344 39.0113 15.344C40.9073 15.344 42.6233 15.752 44.1593 16.568C45.6953 17.384 46.8953 18.56 47.7593 20.096C48.6473 21.608 49.0913 23.372 49.0913 25.388ZM39.0473 19.592C37.7753 19.592 36.7073 19.952 35.8433 20.672C34.9793 21.392 34.4513 22.376 34.2593 23.624H43.7993C43.6073 22.4 43.0793 21.428 42.2153 20.708C41.3513 19.964 40.2953 19.592 39.0473 19.592ZM65.3223 34.064C64.7703 34.472 64.0863 34.784 63.2703 35C62.4783 35.192 61.6383 35.288 60.7503 35.288C58.4463 35.288 56.6583 34.7 55.3863 33.524C54.1383 32.348 53.5143 30.62 53.5143 28.34V20.384H50.5263V16.064H53.5143V11.348H59.1303V16.064H63.9543V20.384H59.1303V28.268C59.1303 29.084 59.3343 29.72 59.7423 30.176C60.1743 30.608 60.7743 30.824 61.5423 30.824C62.4303 30.824 63.1863 30.584 63.8103 30.104L65.3223 34.064ZM80.5449 34.064C79.9929 34.472 79.3089 34.784 78.4929 35C77.7009 35.192 76.8609 35.288 75.9729 35.288C73.6689 35.288 71.8809 34.7 70.6089 33.524C69.3609 32.348 68.7369 30.62 68.7369 28.34V20.384H65.7489V16.064H68.7369V11.348H74.3529V16.064H79.1769V20.384H74.3529V28.268C74.3529 29.084 74.5569 29.72 74.9649 30.176C75.3969 30.608 75.9969 30.824 76.7649 30.824C77.6529 30.824 78.4089 30.584 79.0329 30.104L80.5449 34.064ZM102.072 25.388C102.072 25.46 102.036 25.964 101.964 26.9H87.3118C87.5758 28.1 88.1998 29.048 89.1838 29.744C90.1678 30.44 91.3918 30.788 92.8558 30.788C93.8638 30.788 94.7518 30.644 95.5198 30.356C96.3118 30.044 97.0438 29.564 97.7158 28.916L100.704 32.156C98.8798 34.244 96.2158 35.288 92.7118 35.288C90.5278 35.288 88.5958 34.868 86.9158 34.028C85.2358 33.164 83.9398 31.976 83.0278 30.464C82.1158 28.952 81.6598 27.236 81.6598 25.316C81.6598 23.42 82.1038 21.716 82.9918 20.204C83.9038 18.668 85.1398 17.48 86.6998 16.64C88.2838 15.776 90.0478 15.344 91.9918 15.344C93.8878 15.344 95.6038 15.752 97.1398 16.568C98.6758 17.384 99.8758 18.56 100.74 20.096C101.628 21.608 102.072 23.372 102.072 25.388ZM92.0278 19.592C90.7558 19.592 89.6878 19.952 88.8238 20.672C87.9598 21.392 87.4318 22.376 87.2398 23.624H96.7798C96.5878 22.4 96.0598 21.428 95.1958 20.708C94.3318 19.964 93.2758 19.592 92.0278 19.592ZM111.175 18.188C111.847 17.252 112.747 16.544 113.875 16.064C115.027 15.584 116.347 15.344 117.835 15.344V20.528C117.211 20.48 116.791 20.456 116.575 20.456C114.967 20.456 113.707 20.912 112.795 21.824C111.883 22.712 111.427 24.056 111.427 25.856V35H105.811V15.632H111.175V18.188ZM132.373 9.8C134.605 9.8 136.537 10.172 138.169 10.916C139.825 11.66 141.097 12.716 141.985 14.084C142.873 15.452 143.317 17.072 143.317 18.944C143.317 20.792 142.873 22.412 141.985 23.804C141.097 25.172 139.825 26.228 138.169 26.972C136.537 27.692 134.605 28.052 132.373 28.052H127.297V35H121.465V9.8H132.373ZM132.049 23.3C133.801 23.3 135.133 22.928 136.045 22.184C136.957 21.416 137.413 20.336 137.413 18.944C137.413 17.528 136.957 16.448 136.045 15.704C135.133 14.936 133.801 14.552 132.049 14.552H127.297V23.3H132.049ZM152.448 18.188C153.12 17.252 154.02 16.544 155.148 16.064C156.3 15.584 157.62 15.344 159.108 15.344V20.528C158.484 20.48 158.064 20.456 157.848 20.456C156.24 20.456 154.98 20.912 154.068 21.824C153.156 22.712 152.7 24.056 152.7 25.856V35H147.084V15.632H152.448V18.188ZM171.488 35.288C169.448 35.288 167.612 34.868 165.98 34.028C164.372 33.164 163.112 31.976 162.2 30.464C161.288 28.952 160.832 27.236 160.832 25.316C160.832 23.396 161.288 21.68 162.2 20.168C163.112 18.656 164.372 17.48 165.98 16.64C167.612 15.776 169.448 15.344 171.488 15.344C173.528 15.344 175.352 15.776 176.96 16.64C178.568 17.48 179.828 18.656 180.74 20.168C181.652 21.68 182.108 23.396 182.108 25.316C182.108 27.236 181.652 28.952 180.74 30.464C179.828 31.976 178.568 33.164 176.96 34.028C175.352 34.868 173.528 35.288 171.488 35.288ZM171.488 30.68C172.928 30.68 174.104 30.2 175.016 29.24C175.952 28.256 176.42 26.948 176.42 25.316C176.42 23.684 175.952 22.388 175.016 21.428C174.104 20.444 172.928 19.952 171.488 19.952C170.048 19.952 168.86 20.444 167.924 21.428C166.988 22.388 166.52 23.684 166.52 25.316C166.52 26.948 166.988 28.256 167.924 29.24C168.86 30.2 170.048 30.68 171.488 30.68ZM192.018 16.064H196.986V20.384H192.162V35H186.546V20.384H183.558V16.064H186.546V15.2C186.546 12.992 187.194 11.24 188.49 9.944C189.81 8.648 191.658 8 194.034 8C194.874 8 195.666 8.096 196.41 8.288C197.178 8.456 197.814 8.708 198.318 9.044L196.842 13.112C196.194 12.656 195.438 12.428 194.574 12.428C192.87 12.428 192.018 13.364 192.018 15.236V16.064ZM218.509 25.388C218.509 25.46 218.473 25.964 218.401 26.9H203.749C204.013 28.1 204.637 29.048 205.621 29.744C206.605 30.44 207.829 30.788 209.293 30.788C210.301 30.788 211.189 30.644 211.957 30.356C212.749 30.044 213.481 29.564 214.153 28.916L217.141 32.156C215.317 34.244 212.653 35.288 209.149 35.288C206.965 35.288 205.033 34.868 203.353 34.028C201.673 33.164 200.377 31.976 199.465 30.464C198.553 28.952 198.097 27.236 198.097 25.316C198.097 23.42 198.541 21.716 199.429 20.204C200.341 18.668 201.577 17.48 203.137 16.64C204.721 15.776 206.485 15.344 208.429 15.344C210.325 15.344 212.041 15.752 213.577 16.568C215.113 17.384 216.313 18.56 217.177 20.096C218.065 21.608 218.509 23.372 218.509 25.388ZM208.465 19.592C207.193 19.592 206.125 19.952 205.261 20.672C204.397 21.392 203.869 22.376 203.677 23.624H213.217C213.025 22.4 212.497 21.428 211.633 20.708C210.769 19.964 209.713 19.592 208.465 19.592ZM228.764 35.288C227.156 35.288 225.584 35.096 224.048 34.712C222.512 34.304 221.288 33.8 220.376 33.2L222.248 29.168C223.112 29.72 224.156 30.176 225.38 30.536C226.604 30.872 227.804 31.04 228.98 31.04C231.356 31.04 232.544 30.452 232.544 29.276C232.544 28.724 232.22 28.328 231.572 28.088C230.924 27.848 229.928 27.644 228.584 27.476C227 27.236 225.692 26.96 224.66 26.648C223.628 26.336 222.728 25.784 221.96 24.992C221.216 24.2 220.844 23.072 220.844 21.608C220.844 20.384 221.192 19.304 221.888 18.368C222.608 17.408 223.64 16.664 224.984 16.136C226.352 15.608 227.96 15.344 229.808 15.344C231.176 15.344 232.532 15.5 233.876 15.812C235.244 16.1 236.372 16.508 237.26 17.036L235.388 21.032C233.684 20.072 231.824 19.592 229.808 19.592C228.608 19.592 227.708 19.76 227.108 20.096C226.508 20.432 226.208 20.864 226.208 21.392C226.208 21.992 226.532 22.412 227.18 22.652C227.828 22.892 228.86 23.12 230.276 23.336C231.86 23.6 233.156 23.888 234.164 24.2C235.172 24.488 236.048 25.028 236.792 25.82C237.536 26.612 237.908 27.716 237.908 29.132C237.908 30.332 237.548 31.4 236.828 32.336C236.108 33.272 235.052 34.004 233.66 34.532C232.292 35.036 230.66 35.288 228.764 35.288ZM247.889 35.288C246.281 35.288 244.709 35.096 243.173 34.712C241.637 34.304 240.413 33.8 239.501 33.2L241.373 29.168C242.237 29.72 243.281 30.176 244.505 30.536C245.729 30.872 246.929 31.04 248.105 31.04C250.481 31.04 251.669 30.452 251.669 29.276C251.669 28.724 251.345 28.328 250.697 28.088C250.049 27.848 249.053 27.644 247.709 27.476C246.125 27.236 244.817 26.96 243.785 26.648C242.753 26.336 241.853 25.784 241.085 24.992C240.341 24.2 239.969 23.072 239.969 21.608C239.969 20.384 240.317 19.304 241.013 18.368C241.733 17.408 242.765 16.664 244.109 16.136C245.477 15.608 247.085 15.344 248.933 15.344C250.301 15.344 251.657 15.5 253.001 15.812C254.369 16.1 255.497 16.508 256.385 17.036L254.513 21.032C252.809 20.072 250.949 19.592 248.933 19.592C247.733 19.592 246.833 19.76 246.233 20.096C245.633 20.432 245.333 20.864 245.333 21.392C245.333 21.992 245.657 22.412 246.305 22.652C246.953 22.892 247.985 23.12 249.401 23.336C250.985 23.6 252.281 23.888 253.289 24.2C254.297 24.488 255.173 25.028 255.917 25.82C256.661 26.612 257.033 27.716 257.033 29.132C257.033 30.332 256.673 31.4 255.953 32.336C255.233 33.272 254.177 34.004 252.785 34.532C251.417 35.036 249.785 35.288 247.889 35.288ZM269.714 35.288C267.674 35.288 265.838 34.868 264.206 34.028C262.598 33.164 261.338 31.976 260.426 30.464C259.514 28.952 259.058 27.236 259.058 25.316C259.058 23.396 259.514 21.68 260.426 20.168C261.338 18.656 262.598 17.48 264.206 16.64C265.838 15.776 267.674 15.344 269.714 15.344C271.754 15.344 273.578 15.776 275.186 16.64C276.794 17.48 278.054 18.656 278.966 20.168C279.878 21.68 280.334 23.396 280.334 25.316C280.334 27.236 279.878 28.952 278.966 30.464C278.054 31.976 276.794 33.164 275.186 34.028C273.578 34.868 271.754 35.288 269.714 35.288ZM269.714 30.68C271.154 30.68 272.33 30.2 273.242 29.24C274.178 28.256 274.646 26.948 274.646 25.316C274.646 23.684 274.178 22.388 273.242 21.428C272.33 20.444 271.154 19.952 269.714 19.952C268.274 19.952 267.086 20.444 266.15 21.428C265.214 22.388 264.746 23.684 264.746 25.316C264.746 26.948 265.214 28.256 266.15 29.24C267.086 30.2 268.274 30.68 269.714 30.68ZM289.452 18.188C290.124 17.252 291.024 16.544 292.152 16.064C293.304 15.584 294.624 15.344 296.112 15.344V20.528C295.488 20.48 295.068 20.456 294.852 20.456C293.244 20.456 291.984 20.912 291.072 21.824C290.16 22.712 289.704 24.056 289.704 25.856V35H284.088V15.632H289.452V18.188Z" fill="#FF7770"/>
<path d="M348.844 14.9249C348.532 14.667 341.424 8.95165 339.862 7.70939C338.394 6.53612 335.884 4 333 4C330.131 4 327.645 6.50464 326.138 7.70939C324.513 9.00099 317.434 14.695 317.163 14.9177C316.799 15.2168 316.507 15.5926 316.305 16.0183C316.104 16.4441 316 16.909 316 17.3799V34.8125C316 36.5729 317.427 38 319.188 38H346.812C348.573 38 350 36.5729 350 34.8125V17.3815C350 16.9121 349.896 16.4485 349.696 16.0239C349.497 15.5992 349.205 15.224 348.844 14.9249ZM346.812 34.4141C346.812 34.5197 346.771 34.6211 346.696 34.6958C346.621 34.7705 346.52 34.8125 346.414 34.8125H319.586C319.48 34.8125 319.379 34.7705 319.304 34.6958C319.229 34.6211 319.188 34.5197 319.188 34.4141V17.5699C319.188 17.4495 319.242 17.3358 319.335 17.2601C320.389 16.4092 326.56 11.446 328.125 10.2016C329.331 9.23813 331.433 7.1875 333 7.1875C334.573 7.1875 336.709 9.2706 337.875 10.2016C339.44 11.4461 345.611 16.4101 346.665 17.2617C346.711 17.299 346.748 17.3462 346.774 17.3997C346.799 17.4533 346.813 17.5119 346.812 17.5713V34.4141V34.4141ZM344.688 21.9493C344.97 22.2919 344.918 22.799 344.572 23.077C342.648 24.6231 340.636 26.2377 339.862 26.853C338.355 28.0579 335.869 30.5625 333 30.5625C330.115 30.5625 327.602 28.0233 326.138 26.853C325.389 26.2576 323.366 24.6342 321.428 23.0769C321.082 22.7988 321.03 22.2918 321.312 21.9492L322.325 20.7188C322.603 20.382 323.099 20.3308 323.439 20.6042C325.34 22.1316 327.329 23.7276 328.125 24.3609C329.291 25.2919 331.427 27.375 333 27.375C334.567 27.375 336.669 25.3244 337.875 24.3609C338.671 23.7277 340.66 22.1316 342.561 20.6044C342.901 20.3311 343.397 20.3822 343.675 20.7191L344.688 21.9493V21.9493Z" fill="#FF7770"/>
</svg>
