<svg width="894.13386" height="586.58369" xmlns="http://www.w3.org/2000/svg">
 <title>public_discussion</title>

 <g>
  <title>background</title>
  <rect fill="none" id="canvas_background" height="402" width="582" y="-1" x="-1"/>
 </g>
 <g>
  <title>Layer 1</title>
  <ellipse id="svg_1" fill="#e6e6e6" ry="28.06139" rx="447.06693" cy="558.52231" cx="447.06693"/>
  <path id="svg_2" fill="#e6e6e6" d="m683.298925,0.000005a3.18216,3.18216 0 0 0 -3.17882,3.17882l0,124.60522a3.18216,3.18216 0 0 0 3.17882,3.17881l145.54134,0a3.18216,3.18216 0 0 0 3.17881,-3.17882l0,-124.60518a3.18216,3.18216 0 0 0 -3.17881,-3.17882l-145.54134,-0.00003z"/>
  <path id="svg_3" fill="#fff" d="m703.483795,75.000585a1.39761,1.39761 0 0 0 0,2.739l106.48039,0a1.39761,1.39761 0 0 0 0,-2.739l-106.48039,0z"/>
  <path id="svg_4" fill="#fff" d="m702.175015,91.274065a1.39761,1.39761 0 0 0 0,2.739l106.48039,0a1.39761,1.39761 0 0 0 0,-2.739l-106.48039,0z"/>
  <path id="svg_5" fill="#fff" d="m703.483795,107.547555a1.39761,1.39761 0 0 0 0,2.739l106.48039,0a1.39761,1.39761 0 0 0 0,-2.739l-106.48039,0z"/>
  <path id="svg_6" fill="#fff" d="m703.483795,20.676275a1.39808,1.39808 0 0 0 0,2.7398l106.48039,0a1.39808,1.39808 0 0 0 0,-2.7398l-106.48039,0z"/>
  <path id="svg_7" fill="#fff" d="m702.175015,36.949765a1.39807,1.39807 0 0 0 0,2.73979l106.48039,0a1.39807,1.39807 0 0 0 0,-2.73979l-106.48039,0z"/>
  <path id="svg_8" fill="#fff" d="m703.483795,53.223255a1.39807,1.39807 0 0 0 0,2.73979l106.48039,0a1.39807,1.39807 0 0 0 0,-2.73979l-106.48039,0z"/>
  <path id="svg_9" fill="#ff7770" d="m618.245745,50.954175a3.18216,3.18216 0 0 0 -3.17882,3.17881l0,124.60522a3.18216,3.18216 0 0 0 3.17882,3.17882l145.54132,0a3.18216,3.18216 0 0 0 3.17881,-3.17882l0,-124.60522a3.18216,3.18216 0 0 0 -3.17881,-3.17881l-145.54132,0z"/>
  <path id="svg_10" fill="#fff" d="m638.430595,125.954745a1.39761,1.39761 0 0 0 0,2.739l106.48039,0a1.39761,1.39761 0 0 0 0,-2.739l-106.48039,0z"/>
  <path id="svg_11" fill="#fff" d="m637.121825,142.228235a1.39761,1.39761 0 0 0 0,2.739l106.48038,0a1.39761,1.39761 0 0 0 0,-2.739l-106.48038,0z"/>
  <path id="svg_12" fill="#fff" d="m638.430595,158.501715a1.39761,1.39761 0 0 0 0,2.739l106.48039,0a1.39761,1.39761 0 0 0 0,-2.739l-106.48039,0z"/>
  <path id="svg_13" fill="#fff" d="m638.430595,71.630445a1.39807,1.39807 0 0 0 0,2.73979l106.48039,0a1.39807,1.39807 0 0 0 0,-2.73979l-106.48039,0z"/>
  <path id="svg_14" fill="#fff" d="m637.121825,87.903925a1.39807,1.39807 0 0 0 0,2.73979l106.48038,0a1.39807,1.39807 0 0 0 0,-2.73979l-106.48038,0z"/>
  <path id="svg_15" fill="#fff" d="m638.430595,104.177415a1.39807,1.39807 0 0 0 0,2.73979l106.48039,0a1.39807,1.39807 0 0 0 0,-2.73979l-106.48039,0z"/>
  <polygon id="svg_16" fill="#fbbebe" points="823.848 515.784 824.611 530.278 840.63 528.752 839.105 514.259 823.848 515.784"/>
  <polygon id="svg_17" fill="#fbbebe" points="762.058 499.002 762.821 513.496 778.841 511.97 777.315 497.476 762.058 499.002"/>
  <path id="svg_18" fill="#000000" d="m834.909045,318.591485l-57.97546,9.91685l-3.81417,105.27122l-15.2567,67.12948l24.41072,10.67968l23.64788,-66.36663l8.39119,-58.73829l6.10268,58.73829l0.76283,73.995l37.37891,-2.2885l-8.93655,-144.89973a134.80677,134.80677 0 0 0 -14.71132,-53.43732l-0.00001,-0.00005z"/>
  <path id="svg_19" fill="#2f2e41" d="m826.136445,524.938335s-5.33985,-6.10268 -5.33985,-3.81418s-3.05134,24.41072 -3.05134,24.41072s20.59655,6.10268 20.59655,9.91685s29.75056,9.91686 28.98772,2.28851s-26.69922,-36.61608 -26.69922,-36.61608s-10.67969,-1.52567 -14.49386,3.81418z"/>
  <path id="svg_20" fill="#2f2e41" d="m765.275075,508.248155s-1.62605,-7.94434 -2.75708,-5.95486s-14.71691,19.71311 -14.71691,19.71311s14.88927,15.48451 13.00423,18.80031s20.96215,23.32441 24.06908,16.31579s-5.11423,-45.027 -5.11423,-45.027s-8.53024,-6.60443 -14.48509,-3.84735z"/>
  <polygon id="svg_21" fill="#2f2e41" points="764.106 234.499 806.338 238.537 820.415 200.175 779.985 190.435 764.106 234.499"/>
  <circle id="svg_22" fill="#fbbebe" r="21.35938" cy="205.31049" cx="798.67439"/>
  <path id="svg_23" fill="#fbbebe" d="m786.469025,218.278685s0,14.49387 -11.44252,20.59655s27.46205,12.96819 27.46205,12.96819l3.81418,-12.96819s-11.44252,-5.33985 -1.52567,-17.54521l-18.30804,-3.05134z"/>
  <path id="svg_24" fill="#000000" d="m804.777065,235.061055s-13.97113,8.65367 -25.675,0.89408l-4.83838,-0.89408l-14.49386,3.05134l-6.86552,25.93639l25.93639,64.841s45.00726,7.62835 54.16128,-9.154l-5.33984,-68.65514l-14.49387,-17.54521l-8.3912,1.52562z"/>
  <polygon id="svg_25" fill="#000000" points="811.643 235.824 836.816 200.733 834.528 196.919 801.726 180.137 801.726 169.457 852.836 183.188 856.294 188.668 826.136 254.132 811.643 235.824"/>
  <polygon id="svg_26" fill="#000000" points="761.2949829101562,236.875 759.77001953125,236.11199951171875 721.6279907226562,234.58700561523438 750.6160278320312,209.41299438476562 741.4619750976562,197.9709930419922 697.97998046875,230.7729949951172 697.97998046875,238.4010009765625 759.77001953125,264.3370056152344 761.2949829101562,236.875 "/>
  <path id="svg_27" fill="#fbbebe" d="m741.080345,203.403405l5.33985,-3.05134s11.44252,-15.2567 16.01953,-9.154s-10.67969,17.54521 -10.67969,17.54521l-8.39118,3.05134l-2.28851,-8.39121z"/>
  <path id="svg_28" fill="#fbbebe" d="m804.014225,171.745755l-8.39118,-4.577s-25.17355,2.28851 -22.12221,7.62835s20.59654,0.76284 20.59654,0.76284l9.91685,3.05134l0,-6.86553z"/>
  <path id="svg_29" fill="#000000" d="m782.277155,184.695315s-9.80475,3.26825 -10.30262,16.1753a22.89341,22.89341 0 0 0 0.68058,6.12889c0.55208,2.33976 0.907,7.37421 -3.3716,13.95318a138.11944,138.11944 0 0 0 -7.8392,13.48452l-0.03068,0.06135l10.76827,1.346l2.28969,-17.84918a88.88225,88.88225 0 0 1 7.058,-25.05771l0.07451,-0.16618s4.71112,8.74922 14.13335,8.74922l-3.36508,-3.36508s14.80637,6.05715 20.1905,6.05715c0,0 4.0381,2.69206 0,6.73016s-12.1143,13.46034 -7.40318,20.86352s0.673,9.42223 0.673,9.42223l7.40319,-4.0381l3.36508,-2.019l0,2.69207l17.49843,-2.019s4.71112,-0.673 -5.38413,-12.1143c0,0 -2.66582,-4.443 -1.4995,-8.27508a19.32915,19.32915 0 0 0 0.73475,-9.03963c-2.26159,-12.61694 -11.13483,-37.70079 -45.67336,-21.72033z"/>
  <path id="svg_30" fill="#e6e6e6" d="m168.357115,197.155475a1.99183,1.99183 0 0 0 -1.98974,1.98974l0,152.01646a1.99159,1.99159 0 0 0 1.98974,1.98975l347.0114,0a1.99159,1.99159 0 0 0 1.98975,-1.98975l0,-152.01646a1.99184,1.99184 0 0 0 -1.98975,-1.98974l-347.0114,0z"/>
  <path id="svg_31" fill="#fff" d="m468.410555,227.146205l-253.09547,0a2.3877,2.3877 0 1 1 0,-4.77539l253.09547,0a2.3877,2.3877 0 0 1 0,4.77539z"/>
  <path id="svg_32" fill="#fff" d="m468.410555,246.247745l-253.09547,0a2.38769,2.38769 0 1 1 0,-4.77538l253.09547,0a2.38769,2.38769 0 1 1 0,4.77538z"/>
  <path id="svg_33" fill="#fff" d="m468.410555,265.349295l-253.09547,0a2.3877,2.3877 0 1 1 0,-4.77539l253.09547,0a2.3877,2.3877 0 0 1 0,4.77539z"/>
  <path id="svg_34" fill="#fff" d="m468.410555,284.306265l-253.09547,0a2.38769,2.38769 0 1 1 0,-4.77538l253.09547,0a2.38769,2.38769 0 1 1 0,4.77538z"/>
  <path id="svg_35" fill="#fff" d="m468.410555,303.407855l-253.09547,0a2.3877,2.3877 0 1 1 0,-4.77539l253.09547,0a2.38769,2.38769 0 0 1 0,4.77539z"/>
  <path id="svg_36" fill="#fff" d="m404.167095,319.302355a0.68249,0.68249 0 0 0 -0.68178,0.68177l0,18.074a0.68249,0.68249 0 0 0 0.68178,0.68177l63.22313,0a0.68249,0.68249 0 0 0 0.68177,-0.68177l0,-18.074a0.68249,0.68249 0 0 0 -0.68177,-0.68177l-63.22313,0z"/>
  <path id="svg_37" fill="#000000" d="m57.844195,352.804855s-5.22,62.76447 -6.34076,76.21377a95.64717,95.64717 0 0 1 -5.60387,24.65705a23.18546,23.18546 0 0 0 -2.24155,8.9662l0,57.15952s-4.4831,0 -3.36233,4.4831s2.24155,12.32852 2.24155,12.32852l16.81162,0s-1.12077,-3.36233 2.24155,-4.4831s0,-10.087 0,-10.087l17.9324,-67.2465l26.8986,-56.03874s15.69085,50.43487 19.05317,56.03874c0,0 12.32853,62.7634 14.57008,68.36727s3.36232,5.60388 2.24155,7.84543s-1.12078,4.48309 0,5.60387s22.41549,0 22.41549,0l-5.60387,-79.575l-10.087,-95.26586l-51.55562,-15.69087l-39.61101,6.7236z"/>
  <path id="svg_38" fill="#2f2e41" d="m54.865765,527.646785s-5.60388,-20.17395 -14.57008,-4.4831s-8.9662,21.29472 -8.9662,21.29472s-14.57007,21.29473 5.60388,19.05318s15.69085,-12.32853 15.69085,-12.32853s7.84542,-4.4831 7.84542,-7.84542s-5.60387,-15.69085 -5.60387,-15.69085z"/>
  <path id="svg_39" fill="#2f2e41" d="m145.648525,525.405235s5.60387,-20.17395 14.57007,-4.4831s8.9662,21.29472 8.9662,21.29472s14.57008,21.29473 -5.60387,19.05318s-15.69085,-12.32853 -15.69085,-12.32853s-7.84542,-4.4831 -7.84542,-7.84542s5.60387,-15.69085 5.60387,-15.69085z"/>
  <path id="svg_40" fill="#ffb9b9" d="m92.972105,201.501295s2.24155,14.57008 -4.4831,17.9324s14.57007,15.69085 20.17395,15.69085s15.69085,-11.20775 15.69085,-11.20775s-5.60388,-16.81162 -4.4831,-20.17395l-26.8986,-2.24155z"/>
  <circle id="svg_41" fill="#ffb9b9" r="23.53627" cy="189.17277" cx="105.30063"/>
  <path id="svg_42" fill="#000000" d="m151.252395,237.366095l-28.01847,-16.97548s-15.94172,18.09625 -33.18876,-2.07769l-29.57556,7.84542l4.4831,76.21269s-6.72465,30.26092 -4.4831,35.8648s-5.60387,7.84542 -3.36232,8.9662s0,8.9662 0,8.9662s43.71022,22.41549 91.90353,5.60387l-4.4831,-14.57007a11.76068,11.76068 0 0 0 -2.24154,-11.20775s4.48309,-6.72465 -1.12078,-12.32853c0,0 2.24155,-10.087 -3.36232,-14.57007l-1.12075,-15.69083l3.36233,-7.84542l11.20774,-48.19334z"/>
  <path id="svg_43" fill="#000000" d="m93.255445,177.244225s-2.806,6.07252 8.418,3.64351c0,0 4.209,2.429 4.209,-1.2145c0,0 5.612,6.07252 7.015,2.429s4.209,1.2145 4.209,1.2145l2.806,-6.07252l2.806,3.64351l9.821,0s2.806,-24.29007 -30.866,-21.86106s-17.10715,40.91424 -17.10715,40.91424s0.27115,-6.90814 3.07715,-3.26463s5.612,-19.43205 5.612,-19.43205z"/>
  <path id="svg_44" fill="#ffb9b9" d="m161.339375,282.197085l1.12077,23.53628s4.4831,43.71022 -4.4831,62.76339l0,10.087s-2.24155,25.77782 -13.4493,24.65705s3.36233,-36.98557 3.36233,-36.98557l-2.24155,-49.31409l-2.24155,-28.01938l17.9324,-6.72468z"/>
  <path id="svg_45" fill="#000000" d="m138.923925,238.486855l11.18029,-1.81645a54.58562,54.58562 0 0 1 15.71831,28.71505c3.36232,17.9324 4.4831,21.29472 4.4831,21.29472l-26.8986,6.72465l-14.5701,-28.01936l10.087,-26.89861z"/>
  <path id="svg_46" fill="#ff7770" d="m91.994925,245.126575a1.99184,1.99184 0 0 0 -1.98975,1.98974l0,152.01647a1.99159,1.99159 0 0 0 1.98975,1.98974l347.0114,0a1.99158,1.99158 0 0 0 1.98974,-1.98974l0,-152.01647a1.99183,1.99183 0 0 0 -1.98974,-1.98974l-347.0114,0z"/>
  <path id="svg_47" fill="#fff" d="m392.048385,275.117305l-253.09546,0a2.3877,2.3877 0 0 1 0,-4.77539l253.09546,0a2.38769,2.38769 0 1 1 0,4.77539z"/>
  <path id="svg_48" fill="#fff" d="m392.048385,294.218855l-253.09546,0a2.3877,2.3877 0 0 1 0,-4.77539l253.09546,0a2.38769,2.38769 0 1 1 0,4.77539z"/>
  <path id="svg_49" fill="#fff" d="m392.048385,313.320395l-253.09546,0a2.3877,2.3877 0 0 1 0,-4.77539l253.09546,0a2.3877,2.3877 0 1 1 0,4.77539z"/>
  <path id="svg_50" fill="#fff" d="m392.048385,332.277375l-253.09546,0a2.3877,2.3877 0 0 1 0,-4.77539l253.09546,0a2.3877,2.3877 0 1 1 0,4.77539z"/>
  <path id="svg_51" fill="#fff" d="m392.048385,351.378915l-253.09546,0a2.38769,2.38769 0 1 1 0,-4.77538l253.09546,0a2.38769,2.38769 0 1 1 0,4.77538z"/>
  <path id="svg_52" fill="#fff" d="m327.804925,367.273455a0.68249,0.68249 0 0 0 -0.68177,0.68177l0,18.074a0.68249,0.68249 0 0 0 0.68177,0.68177l63.22313,0a0.68249,0.68249 0 0 0 0.68177,-0.68177l0,-18.074a0.68249,0.68249 0 0 0 -0.68177,-0.68177l-63.22313,0z"/>
  <path id="svg_53" fill="#ffb9b9" d="m43.658015,268.747795s-10.087,42.58944 2.24155,42.58944s41.46867,-48.19332 41.46867,-48.19332s30.26092,-15.69085 17.93239,-21.29472s-28.01937,8.9662 -28.01937,8.9662l-18.105,25.13638l-0.94817,-12.80786l-14.57007,5.60388z"/>
  <path id="svg_54" fill="#000000" d="m67.194285,232.882995l-6.72465,-6.72465s-13.4493,7.84542 -14.57007,15.69085s-6.72465,32.50247 -6.72465,32.50247l20.73433,1.68116l6.72465,-10.087l0.56039,-33.06283z"/>
 </g>
</svg>