<svg width="882.34637" height="778.99856" xmlns="http://www.w3.org/2000/svg">
 <title>remotely</title>

 <g>
  <title>background</title>
  <rect fill="none" id="canvas_background" height="1" width="1" y="-1" x="-1"/>
 </g>
 <g>
  <title>Layer 1</title>
  <path id="svg_1" fill="#e6e6e6" d="m342.361957,20.059949l3.46953,-5.362a80.3872,80.3872 0 0 0 -3.55952,-8.33251l-2.24352,1.81205l1.77642,-2.74534c-1.69294,-3.3325 -3.02505,-5.43215 -3.02505,-5.43215s-6.95827,10.96511 -9.283,22.57466l4.45222,6.88072l-4.9288,-3.981a32.52249,32.52249 0 0 0 -0.27041,4.0782c0,13.74959 4.49056,24.89583 10.03,24.89583s10.03,-11.14624 10.03,-24.89583a42.818,42.818 0 0 0 -2.29454,-12.84723l-4.15333,3.3546z"/>
  <path id="svg_2" fill="#e6e6e6" d="m366.919837,31.980069l6.24485,-1.33818a80.386,80.386 0 0 0 3.375,-8.40894l-2.86772,-0.30508l3.19738,-0.68514c1.15933,-3.55352 1.70207,-5.98014 1.70207,-5.98014s-12.67374,2.83326 -22.52676,9.39864l-1.71721,8.01359l-0.67022,-6.30016a32.52414,32.52414 0 0 0 -3.07493,2.69252c-9.72242,9.72242 -14.4287,20.77932 -10.51174,24.69627s14.97385,-0.78932 24.69627,-10.51174a42.81769,42.81769 0 0 0 7.46188,-10.70686l-5.30887,-0.56478z"/>
  <path id="svg_3" fill="#e6e6e6" d="m369.200827,85.183999c-14.48118,0.92631 -30.25994,-0.05387 -47.04589,0l0,-38.43185c14.79122,2.30262 30.56472,2.06615 47.04589,0l0,38.43185z"/>
  <path id="svg_4" fill="#e6e6e6" d="m472.801617,115.151499l2.26263,-3.49679a52.42392,52.42392 0 0 0 -2.32132,-5.434l-1.46308,1.18172l1.15847,-1.79036c-1.104,-2.17326 -1.97276,-3.54253 -1.97276,-3.54253a50.2414,50.2414 0 0 0 -6.05381,14.72187l2.90347,4.4872l-3.21427,-2.59615a21.20987,21.20987 0 0 0 -0.17635,2.65956c0,8.96667 2.92849,16.2356 6.541,16.2356s6.541,-7.26893 6.541,-16.2356a27.92338,27.92338 0 0 0 -1.49636,-8.37821l-2.70862,2.18769z"/>
  <path id="svg_5" fill="#e6e6e6" d="m488.816827,122.925099l4.07252,-0.87269a52.42092,52.42092 0 0 0 2.201,-5.48381l-1.87016,-0.199l2.08514,-0.44681c0.756,-2.31739 1.11,-3.89989 1.11,-3.89989a50.241,50.241 0 0 0 -14.69062,6.12924l-1.11987,5.226l-0.43707,-4.10859a21.20826,21.20826 0 0 0 -2.00529,1.7559c-6.3404,6.34039 -9.40955,13.55105 -6.85515,16.10546s9.76507,-0.51475 16.10546,-6.85515a27.92314,27.92314 0 0 0 4.8662,-6.98238l-3.46216,-0.36828z"/>
  <path id="svg_6" fill="#e6e6e6" d="m490.304357,157.621569c-9.44378,0.60408 -19.73376,-0.03513 -30.68057,0l0,-25.063a110.58424,110.58424 0 0 0 30.68057,0l0,25.063z"/>
  <path id="svg_7" fill="#e6e6e6" d="m484.472807,231.897999c-8.33889,0.53341 -17.425,-0.031 -27.091,0l0,-22.13072a97.6466,97.6466 0 0 0 27.091,0l0,22.13072z"/>
  <rect id="svg_8" fill="#e6e6e6" height="10.18288" width="364.54703" y="82.48131" x="167.50834"/>
  <rect id="svg_9" fill="#e6e6e6" height="10.18288" width="364.54703" y="154.77974" x="167.50834"/>
  <rect id="svg_10" fill="#e6e6e6" height="10.18288" width="364.54703" y="227.07818" x="167.50834"/>
  <circle id="svg_11" fill="#e6e6e6" r="20.36576" cy="197.54783" cx="470.9581"/>
  <circle id="svg_12" fill="#fff" r="16.2926" cy="197.54783" cx="470.9581"/>
  <circle id="svg_13" fill="#e6e6e6" r="4.07315" cy="197.54783" cx="470.9581"/>
  <rect id="svg_14" fill="#e6e6e6" transform="rotate(90 735.1163940429688,-438.34680175781244) " height="16.2926" width="2.03658" y="-188.444552" x="1369.992754"/>
  <rect id="svg_15" fill="#e6e6e6" transform="rotate(180 1100.7430419921875,443.3769226074219) " height="16.2926" width="2.03658" y="687.169443" x="1729.509672"/>
  <rect id="svg_16" fill="#e6e6e6" height="53.33878" width="13.47506" y="105.10421" x="339.72544"/>
  <rect id="svg_17" fill="#ccc" height="6.17607" width="13.47506" y="113.52612" x="339.72544"/>
  <rect id="svg_18" fill="#ccc" height="6.17607" width="13.47506" y="140.47624" x="339.72544"/>
  <rect id="svg_19" fill="#e6e6e6" height="53.33878" width="13.47506" y="105.10421" x="318.95139"/>
  <rect id="svg_20" fill="#ccc" height="6.17607" width="13.47506" y="113.52612" x="318.95139"/>
  <rect id="svg_21" fill="#ccc" height="6.17607" width="13.47506" y="140.47624" x="318.95139"/>
  <rect id="svg_22" fill="#e6e6e6" transform="rotate(-26.339599609375 -189.1714324951172,194.36555480957034) " height="53.33878" width="13.47506" y="359.970485" x="333.523638"/>
  <rect id="svg_23" fill="#ccc" transform="rotate(-26.339599609375 -183.84193420410153,189.9707794189453) " height="6.17607" width="13.47506" y="365.571469" x="332.127036"/>
  <rect id="svg_24" fill="#ccc" transform="rotate(-26.339599609375 -193.31660461425778,197.7837066650391) " height="6.17607" width="13.47506" y="397.536557" x="334.609885"/>
  <rect id="svg_25" fill="#e6e6e6" height="53.33878" width="13.47506" y="177.40264" x="219.56748"/>
  <rect id="svg_26" fill="#ccc" height="6.17607" width="13.47506" y="185.82455" x="219.56748"/>
  <rect id="svg_27" fill="#ccc" height="6.17607" width="13.47506" y="212.77467" x="219.56748"/>
  <rect id="svg_28" fill="#e6e6e6" height="53.33878" width="13.47506" y="177.40264" x="198.79343"/>
  <rect id="svg_29" fill="#ccc" height="6.17607" width="13.47506" y="185.82455" x="198.79343"/>
  <rect id="svg_30" fill="#ccc" height="6.17607" width="13.47506" y="212.77467" x="198.79343"/>
  <rect id="svg_31" fill="#e6e6e6" transform="rotate(-26.339599609375 -233.72439575195318,148.55859375000003) " height="53.33878" width="13.47506" y="386.461954" x="168.812724"/>
  <rect id="svg_32" fill="#ccc" transform="rotate(-26.339599609375 -228.39489746093741,144.16383361816406) " height="6.17607" width="13.47506" y="392.062964" x="167.416113"/>
  <rect id="svg_33" fill="#ccc" transform="rotate(-26.339599609375 -237.86955261230463,151.9767608642578) " height="6.17607" width="13.47506" y="424.028041" x="169.898977"/>
  <rect id="svg_34" fill="#e6e6e6" height="53.33878" width="13.47506" y="177.40264" x="345.83517"/>
  <rect id="svg_35" fill="#ccc" height="6.17607" width="13.47506" y="185.82455" x="345.83517"/>
  <rect id="svg_36" fill="#ccc" height="6.17607" width="13.47506" y="212.77467" x="345.83517"/>
  <rect id="svg_37" fill="#e6e6e6" height="53.33878" width="13.47506" y="177.40264" x="325.06112"/>
  <rect id="svg_38" fill="#ccc" height="6.17607" width="13.47506" y="185.82455" x="325.06112"/>
  <rect id="svg_39" fill="#ccc" height="6.17607" width="13.47506" y="212.77467" x="325.06112"/>
  <rect id="svg_40" fill="#e6e6e6" transform="rotate(-26.339599609375 -220.61526489257818,204.58241271972656) " height="53.33878" width="13.47506" y="442.485773" x="308.189535"/>
  <rect id="svg_41" fill="#ccc" transform="rotate(-26.339599609375 -215.28576660156256,200.18763732910153) " height="6.17607" width="13.47506" y="448.086767" x="306.792933"/>
  <rect id="svg_42" fill="#ccc" transform="rotate(-26.339599609375 -224.76043701171878,208.00056457519534) " height="6.17607" width="13.47506" y="480.051845" x="309.275783"/>
  <rect id="svg_43" fill="#e6e6e6" height="53.55594" width="53.55594" y="32.64567" x="449.98737"/>
  <rect id="svg_44" fill="#ccc" height="32.13357" width="32.13357" y="43.35686" x="460.69856"/>
  <polygon id="svg_45" fill="#e6e6e6" points="470 54.143 476.814 65.944 483.627 77.745 470 77.745 456.373 77.745 463.187 65.944 470 54.143"/>
  <polygon id="svg_46" fill="#e6e6e6" points="481.839 56.398 488.653 68.199 495.466 80 481.839 80 468.212 80 475.026 68.199 481.839 56.398"/>
  <circle id="svg_47" fill="#e6e6e6" r="3.94623" cy="48.99433" cx="486.63091"/>
  <rect id="svg_48" fill="#e6e6e6" height="53.55594" width="53.55594" y="32.64567" x="179.12282"/>
  <rect id="svg_49" fill="#ccc" height="32.13357" width="32.13357" y="43.35686" x="189.83401"/>
  <polygon id="svg_50" fill="#e6e6e6" points="199.136 54.143 205.949 65.944 212.763 77.745 199.136 77.745 185.509 77.745 192.322 65.944 199.136 54.143"/>
  <polygon id="svg_51" fill="#e6e6e6" points="210.975 56.398 217.788 68.199 224.601 80 210.975 80 197.348 80 204.161 68.199 210.975 56.398"/>
  <circle id="svg_52" fill="#e6e6e6" r="3.94623" cy="48.99433" cx="215.76636"/>
  <path id="svg_53" fill="#ff7770" d="m71.497407,397.844719l3.46953,-5.362a80.3871,80.3871 0 0 0 -3.55953,-8.33251l-2.24351,1.812l1.77642,-2.74534c-1.69294,-3.3325 -3.02505,-5.43215 -3.02505,-5.43215s-6.95827,10.96511 -9.283,22.57466l4.45222,6.88072l-4.92881,-3.981a32.52438,32.52438 0 0 0 -0.27041,4.0782c0,13.74959 4.49057,24.89583 10.03,24.89583s10.03,-11.14624 10.03,-24.89583a42.818,42.818 0 0 0 -2.29454,-12.84723l-4.15332,3.35465z"/>
  <path id="svg_54" fill="#ff7770" d="m100.055287,408.764839l6.24485,-1.33818a80.386,80.386 0 0 0 3.375,-8.40894l-2.86772,-0.30508l3.19737,-0.68514c1.15934,-3.55352 1.70208,-5.98014 1.70208,-5.98014s-12.67374,2.83326 -22.52676,9.39864l-1.71721,8.01359l-0.67022,-6.30016a32.52414,32.52414 0 0 0 -3.07493,2.69252c-9.72243,9.72242 -14.4287,20.77932 -10.51175,24.69627s14.97385,-0.78932 24.69628,-10.51174a42.818,42.818 0 0 0 7.46188,-10.70686l-5.30887,-0.56478z"/>
  <path id="svg_55" fill="#3f3d56" d="m98.336277,462.968769c-14.48118,0.92631 -30.25994,-0.05387 -47.04589,0l0,-38.43185c14.79122,2.30262 30.56472,2.06615 47.04589,0l0,38.43185z"/>
  <rect id="svg_56" fill="#e6e6e6" height="253.55366" width="195.51126" y="475.03125" x="500.99759"/>
  <rect id="svg_57" fill="#e6e6e6" height="240.31592" width="10.18288" y="488.269" x="92.66419"/>
  <rect id="svg_58" fill="#e6e6e6" height="20.36576" width="696.50885" y="457.72036"/>
  <rect id="svg_59" fill="#e6e6e6" height="20.36576" width="20.36576" y="478.08612" x="87.57275"/>
  <polygon id="svg_60" fill="#000000" points="615.155029296875,489.7959899902344 614.0089721679688,494.3789978027344 585.4970092773438,494.3789978027344 583.7789916992188,489.7959899902344 511.1619873046875,489.7959899902344 511.1619873046875,536.6380004882812 688.343994140625,536.6380004882812 688.343994140625,489.7959899902344 615.155029296875,489.7959899902344 "/>
  <polygon id="svg_61" fill="#000000" points="614.155 548.857 613.009 553.439 584.497 553.439 582.779 548.857 510.162 548.857 510.162 595.698 687.344 595.698 687.344 548.857 614.155 548.857"/>
  <polygon id="svg_62" fill="#000000" points="614.155 607.918 613.009 612.5 584.497 612.5 582.779 607.918 510.162 607.918 510.162 654.759 687.344 654.759 687.344 607.918 614.155 607.918"/>
  <polygon id="svg_63" fill="#000000" points="614.155 666.979 613.009 671.561 584.497 671.561 582.779 666.979 510.162 666.979 510.162 713.82 687.344 713.82 687.344 666.979 614.155 666.979"/>
  <polygon id="svg_64" fill="#e6e6e6" points="377.785 454.665 317.706 454.665 319.742 428.19 375.748 428.19 377.785 454.665"/>
  <rect id="svg_65" fill="#e6e6e6" height="6.10973" width="67.20699" y="451.61063" x="314.65093"/>
  <path id="svg_66" fill="#000000" d="m462.811807,256.626809l-229.6239,0a6.10973,6.10973 0 0 0 -6.10973,6.10973l0,140.01457l241.84335,0l0,-140.01457a6.10973,6.10973 0 0 0 -6.10972,-6.10973z"/>
  <path id="svg_67" fill="#e6e6e6" d="m227.078187,403.751109l0,22.91147a6.10973,6.10973 0 0 0 6.10973,6.10973l229.6239,0a6.10973,6.10973 0 0 0 6.10972,-6.10973l0,-22.91147l-241.84335,0z"/>
  <rect id="svg_68" fill="#fff" height="122.19453" width="217.91359" y="270.35541" x="239.29763"/>
  <circle id="svg_69" fill="#3f3d56" r="6.10973" cy="418.00714" cx="348.25442"/>
  <path id="svg_70" fill="#3f3d56" d="m865.035477,727.057479c-22.25416,1.42352 -46.50239,-0.08278 -72.29843,0l0,-59.06069c22.73061,3.53859 46.97076,3.17519 72.29843,0l0,59.06069z"/>
  <polygon id="svg_71" fill="#3f3d56" points="831.432 673.3 825.322 673.3 827.359 553.949 829.395 553.949 831.432 673.3"/>
  <polygon id="svg_72" fill="#3f3d56" points="858.926 674.107 852.816 674.107 854.853 554.755 856.889 554.755 858.926 674.107"/>
  <polygon id="svg_73" fill="#3f3d56" points="806.993 674.107 800.883 674.107 802.92 554.755 804.956 554.755 806.993 674.107"/>
  <path id="svg_74" fill="#e6e6e6" d="m836.523417,477.576969l9.8628,-15.24249a228.51376,228.51376 0 0 0 -10.11861,-23.68669l-6.3776,5.1511l5.0498,-7.80416c-4.81251,-9.47323 -8.59926,-15.44187 -8.59926,-15.44187s-19.78017,31.17033 -26.3886,64.17264l12.65624,19.55971l-14.011,-11.31664a92.45186,92.45186 0 0 0 -0.76869,11.593c0,39.08574 12.76527,70.771 28.51206,70.771s28.512,-31.68526 28.512,-70.771c0,-12.117 -2.74124,-24.794 -6.52266,-36.52063l-11.80648,9.53603z"/>
  <path id="svg_75" fill="#ff7770" d="m865.017187,479.613549l9.8628,-15.2425a228.5147,228.5147 0 0 0 -10.11861,-23.68669l-6.3776,5.15111l5.0498,-7.80416c-4.81251,-9.47323 -8.59926,-15.44188 -8.59926,-15.44188s-19.78017,31.17034 -26.3886,64.17264l12.65626,19.55972l-14.011,-11.31664a92.45186,92.45186 0 0 0 -0.76869,11.593c0,39.08574 12.76527,70.771 28.51206,70.771s28.51206,-31.68526 28.51206,-70.771c0,-12.117 -2.74125,-24.794 -6.52267,-36.52064l-11.80655,9.53604z"/>
  <path id="svg_76" fill="#ff7770" d="m814.084517,479.613549l9.8628,-15.2425a228.51678,228.51678 0 0 0 -10.11862,-23.68669l-6.3776,5.15111l5.0498,-7.80416c-4.8125,-9.47323 -8.59926,-15.44188 -8.59926,-15.44188s-19.78017,31.17034 -26.3886,64.17264l12.65626,19.55972l-14.011,-11.31664a92.45186,92.45186 0 0 0 -0.76869,11.593c0,39.08574 12.76527,70.771 28.51206,70.771s28.51206,-31.68526 28.51206,-70.771c0,-12.117 -2.74125,-24.794 -6.52266,-36.52064l-11.80655,9.53604z"/>
  <rect id="svg_77" fill="#3f3d56" height="3.37283" width="58.75616" y="304.84783" x="309.96395"/>
  <rect id="svg_78" fill="#ff7770" height="3.37283" width="90.7323" y="317.15098" x="310.96395"/>
  <rect id="svg_79" fill="#ff7770" height="3.37283" width="73.94482" y="328.74233" x="310.96395"/>
  <rect id="svg_80" fill="#3f3d56" height="3.37283" width="43.16779" y="340.28988" x="309.96395"/>
  <rect id="svg_81" fill="#3f3d56" height="3.37283" width="65.15139" y="351.83743" x="309.96395"/>
  <rect id="svg_82" fill="#3f3d56" height="7.19463" width="7.19463" y="303.64873" x="283.18393"/>
  <rect id="svg_83" fill="#ff7770" height="7.19463" width="7.19463" y="315.24008" x="284.18393"/>
  <rect id="svg_84" fill="#ff7770" height="7.19463" width="7.19463" y="326.83143" x="284.18393"/>
  <rect id="svg_85" fill="#3f3d56" height="7.19463" width="7.19463" y="338.42278" x="283.18393"/>
  <rect id="svg_86" fill="#3f3d56" height="7.19463" width="7.19463" y="350.01413" x="283.18393"/>
  <path id="svg_87" fill="#ff7770" d="m449.115347,297.462629l-30.83316,0a107.84044,107.84044 0 0 1 0,-36.76267l30.8332,0a66.14839,66.14839 0 0 0 -0.00004,36.76267z"/>
  <path id="svg_88" fill="#2f2e41" d="m222.763897,372.144469l-12.68484,-3.092a32.65651,32.65651 0 0 1 -32.05067,-39.12409l0,0a42.68467,42.68467 0 0 1 42.631,-42.73825l0.00008,0a42.68468,42.68468 0 0 1 42.73825,42.631l0,0.00006c7.19221,25.02823 -15.33345,48.49047 -40.63382,42.32328z"/>
  <circle id="svg_89" fill="#ffb8b8" r="31.36369" cy="345.24334" cx="236.61974"/>
  <path id="svg_90" fill="#ffb8b8" d="m216.165187,361.607009s-9.54547,32.72733 -15,35.4546s43.63644,6.8182 43.63644,6.8182s-1.36364,-31.36369 1.36364,-34.091s-30.00008,-8.1818 -30.00008,-8.1818z"/>
  <path id="svg_91" fill="#000000" d="m265.256187,563.425539s61.36374,-5.45456 69.54557,15s-5.45457,141.81845 -5.45457,141.81845l-25.90915,0l0,-99.54563s-110.4725,-31.40179 -110.4725,-42.31089s72.29065,-14.96193 72.29065,-14.96193z"/>
  <path id="svg_92" fill="#000000" d="m327.256257,714.789429l13.63639,5.45456s16.36366,-1.36364 9.54547,10.90911a27.00366,27.00366 0 0 1 -19.09093,13.63639s-25.90914,9.54547 -27.27278,0s6.8182,-28.63642 6.8182,-28.63642l16.36365,-1.36364z"/>
  <path id="svg_93" fill="#000000" d="m233.165187,563.425539s61.36374,-5.45456 69.54557,15s-5.45457,141.81845 -5.45457,141.81845l-25.90912,0l0,-99.54563s-78.4181,-18.164 -78.4181,-29.07315c0,-5.12492 -5.34348,-31.171 4.07315,-36.65836c10.628,-6.19325 36.16307,8.45869 36.16307,8.45869z"/>
  <path id="svg_94" fill="#000000" d="m293.165287,714.789429l13.63639,5.45456s16.36367,-1.36364 9.54547,10.90911a27.00366,27.00366 0 0 1 -19.09096,13.63639s-25.90914,9.54547 -27.27277,0s6.81819,-28.63642 6.81819,-28.63642l16.36368,-1.36364z"/>
  <path id="svg_95" fill="#000000" d="m202.528777,392.970699l40.98018,4.45436a30.18224,30.18224 0 0 1 26.26893,23.76669l15.93285,75.41553s5.45455,75.00013 -5.45456,79.091s-25.90913,-16.36366 -46.36371,-13.63638s-47.04554,8.86365 -47.04554,8.86365s-4.22274,-134.24727 -4.77274,-145.22752c-1.09958,-21.95106 20.45459,-32.72733 20.45459,-32.72733z"/>
  <path id="svg_96" fill="#ffb8b8" d="m299.600517,567.321829l16.82365,9.9078s30.18279,-4.33064 29.24058,6.278s-33.8887,8.55886 -33.8887,8.55886l-20.275,-12.493l8.09947,-12.25166z"/>
  <circle id="svg_97" fill="#2f2e41" r="20.25966" cy="299.47504" cx="175.7429"/>
  <path id="svg_98" fill="#2f2e41" d="m194.436117,288.583989a20.2502,20.2502 0 0 0 -24.24652,-19.836a20.25023,20.25023 0 1 1 12.63025,38.16451a20.243,20.243 0 0 0 11.61627,-18.32851z"/>
  <path id="svg_99" fill="#2f2e41" d="m210.816657,299.073989l27.313,-5.02907l21.00491,13.16494a31.86273,31.86273 0 0 1 14.6776,31.09515l-21.0372,-5.33225l-4.71074,-11.81208l-5.61047,9.196l-29.33406,37.75029l-16.46978,-10.48815l-14.68292,-23.00931l28.84966,-35.53552z"/>
  <path id="svg_100" fill="#000000" d="m234.308877,404.570509l13.63639,-6.8182s28.63641,4.09092 34.091,23.18186s30,151.3639 30,151.3639l-23.18184,10.90911l-32.72733,-80.45468l-21.81822,-98.18199z"/>
  <polygon id="svg_101" opacity="0.2" points="245.917 458.23 259.565 511.205 283.767 570.701 282.928 572.761 254.063 512.199 245.917 458.23"/>
  <polygon id="svg_102" fill="#3f3d56" points="144.084 750.379 139.271 748.721 185.896 610.231 192.636 612.553 144.084 750.379"/>
  <polygon id="svg_103" fill="#3f3d56" points="322.291 750.379 327.105 748.721 280.479 610.231 273.74 612.553 322.291 750.379"/>
  <polygon id="svg_104" fill="#3f3d56" points="223.77 778.981 228.861 778.999 230.443 617.107 223.315 617.082 223.77 778.981"/>
  <path id="svg_105" fill="#ff7770" d="m132.299737,528.856369l13.96582,56.44513a44.82625,44.82625 0 0 0 32.64214,32.72145l0.00008,0a238.26046,238.26046 0 0 0 118.54694,-0.7638l20.8512,-5.49922c12.11558,-3.19531 21.22652,-13.60111 22.0886,-26.10127a25.68469,25.68469 0 0 0 -2.323,-12.8718q-0.12219,-0.25966 -0.24559,-0.51476a34.06444,34.06444 0 0 0 -29.59817,-19.13845l-22.08892,-0.71254l-80.44465,-35.64006s-27.66705,-14.0531 -50.4117,-15.62629c-15.02078,-1.03894 -26.59906,13.08573 -22.98275,27.70161z"/>
  <rect id="svg_106" fill="#e6e6e6" height="107.93851" width="79.42645" y="351.30929" x="543.25654"/>
  <rect id="svg_107" fill="#fff" height="83.02962" width="61.09727" y="363.76373" x="552.42113"/>
  <rect id="svg_108" fill="#3f3d56" height="3.37283" width="29.60198" y="385.49176" x="576.46734"/>
  <rect id="svg_109" fill="#3f3d56" height="7.19463" width="7.19463" y="383.62466" x="559.8702"/>
  <rect id="svg_110" fill="#3f3d56" height="3.37283" width="29.60198" y="399.74779" x="576.46734"/>
  <rect id="svg_111" fill="#3f3d56" height="7.19463" width="7.19463" y="397.88069" x="559.8702"/>
  <rect id="svg_112" fill="#3f3d56" height="3.37283" width="29.60198" y="414.00382" x="576.46734"/>
  <rect id="svg_113" fill="#3f3d56" height="7.19463" width="7.19463" y="412.13672" x="559.8702"/>
  <rect id="svg_114" fill="#3f3d56" rx="3.05486" height="6.10973" width="6.10973" y="354.36415" x="579.9149"/>
 </g>
</svg>